<mxfile host="app.diagrams.net" modified="2022-02-02T14:24:19.956Z" agent="5.0 (Windows NT 10.0; Win64; x64) AppleWebKit/537.36 (KHTML, like Gecko) Chrome/97.0.4692.99 Safari/537.36 Edg/97.0.1072.76" etag="puy-qMY2dd_tdTNCKoLH" version="16.5.2" type="github">
  <diagram id="QSYPPYSAsTfu4TvCiJ3-" name="Page-1">
    <mxGraphModel dx="2062" dy="1162" grid="1" gridSize="10" guides="1" tooltips="1" connect="1" arrows="1" fold="1" page="1" pageScale="1" pageWidth="850" pageHeight="1100" math="0" shadow="0">
      <root>
        <mxCell id="0" />
        <mxCell id="1" parent="0" />
        <mxCell id="sAo4ShZVMDhmdvcyicgG-1" value="Importer&lt;br&gt;Initial Validation" style="ellipse;whiteSpace=wrap;html=1;" vertex="1" parent="1">
          <mxGeometry x="80" y="80" width="120" height="80" as="geometry" />
        </mxCell>
        <mxCell id="sAo4ShZVMDhmdvcyicgG-2" value="Billing Engine Setup" style="ellipse;whiteSpace=wrap;html=1;" vertex="1" parent="1">
          <mxGeometry x="80" y="240" width="120" height="80" as="geometry" />
        </mxCell>
        <mxCell id="sAo4ShZVMDhmdvcyicgG-3" value="Billing Engine&lt;br&gt;Batch Reads" style="ellipse;whiteSpace=wrap;html=1;" vertex="1" parent="1">
          <mxGeometry x="130" y="360" width="120" height="80" as="geometry" />
        </mxCell>
        <mxCell id="sAo4ShZVMDhmdvcyicgG-4" value="Find Previous Read" style="ellipse;whiteSpace=wrap;html=1;" vertex="1" parent="1">
          <mxGeometry x="160" y="480" width="120" height="80" as="geometry" />
        </mxCell>
        <mxCell id="sAo4ShZVMDhmdvcyicgG-5" value="Calculate Consumption" style="ellipse;whiteSpace=wrap;html=1;" vertex="1" parent="1">
          <mxGeometry x="160" y="570" width="120" height="80" as="geometry" />
        </mxCell>
        <mxCell id="sAo4ShZVMDhmdvcyicgG-6" value="Client DB" style="shape=dataStorage;whiteSpace=wrap;html=1;fixedSize=1;" vertex="1" parent="1">
          <mxGeometry x="720" y="400" width="100" height="80" as="geometry" />
        </mxCell>
        <mxCell id="sAo4ShZVMDhmdvcyicgG-7" value="Validate Consumption" style="ellipse;whiteSpace=wrap;html=1;" vertex="1" parent="1">
          <mxGeometry x="160" y="680" width="120" height="80" as="geometry" />
        </mxCell>
        <mxCell id="sAo4ShZVMDhmdvcyicgG-8" value="Calculate Charges" style="ellipse;whiteSpace=wrap;html=1;" vertex="1" parent="1">
          <mxGeometry x="160" y="800" width="120" height="80" as="geometry" />
        </mxCell>
        <mxCell id="sAo4ShZVMDhmdvcyicgG-9" value="Write Ledger&lt;br&gt;Update Reads&lt;br&gt;Update Snapshots" style="ellipse;whiteSpace=wrap;html=1;" vertex="1" parent="1">
          <mxGeometry x="160" y="900" width="120" height="80" as="geometry" />
        </mxCell>
        <mxCell id="sAo4ShZVMDhmdvcyicgG-10" value="" style="endArrow=classic;html=1;rounded=0;exitX=1;exitY=1;exitDx=0;exitDy=0;entryX=0;entryY=0.5;entryDx=0;entryDy=0;" edge="1" parent="1" source="sAo4ShZVMDhmdvcyicgG-1" target="sAo4ShZVMDhmdvcyicgG-6">
          <mxGeometry width="50" height="50" relative="1" as="geometry">
            <mxPoint x="360" y="210" as="sourcePoint" />
            <mxPoint x="410" y="160" as="targetPoint" />
          </mxGeometry>
        </mxCell>
        <mxCell id="sAo4ShZVMDhmdvcyicgG-13" value="Insert Reads" style="edgeLabel;html=1;align=center;verticalAlign=middle;resizable=0;points=[];" vertex="1" connectable="0" parent="sAo4ShZVMDhmdvcyicgG-10">
          <mxGeometry x="-0.0666" y="-1" relative="1" as="geometry">
            <mxPoint x="1" as="offset" />
          </mxGeometry>
        </mxCell>
        <mxCell id="sAo4ShZVMDhmdvcyicgG-11" value="" style="endArrow=classic;html=1;rounded=0;exitX=0;exitY=0.75;exitDx=0;exitDy=0;entryX=1;entryY=0.5;entryDx=0;entryDy=0;" edge="1" parent="1" source="sAo4ShZVMDhmdvcyicgG-6" target="sAo4ShZVMDhmdvcyicgG-2">
          <mxGeometry width="50" height="50" relative="1" as="geometry">
            <mxPoint x="340" y="150" as="sourcePoint" />
            <mxPoint x="390" y="100" as="targetPoint" />
            <Array as="points">
              <mxPoint x="370" y="330" />
            </Array>
          </mxGeometry>
        </mxCell>
        <mxCell id="sAo4ShZVMDhmdvcyicgG-12" value="Fetch&amp;nbsp; Rate Info" style="edgeLabel;html=1;align=center;verticalAlign=middle;resizable=0;points=[];" vertex="1" connectable="0" parent="sAo4ShZVMDhmdvcyicgG-11">
          <mxGeometry x="0.1586" relative="1" as="geometry">
            <mxPoint as="offset" />
          </mxGeometry>
        </mxCell>
        <mxCell id="sAo4ShZVMDhmdvcyicgG-14" value="" style="endArrow=classic;html=1;rounded=0;exitX=0.25;exitY=0;exitDx=0;exitDy=0;entryX=0.95;entryY=0.188;entryDx=0;entryDy=0;entryPerimeter=0;" edge="1" parent="1">
          <mxGeometry width="50" height="50" relative="1" as="geometry">
            <mxPoint x="755" y="410" as="sourcePoint" />
            <mxPoint x="204" y="105.03999999999996" as="targetPoint" />
          </mxGeometry>
        </mxCell>
        <mxCell id="sAo4ShZVMDhmdvcyicgG-15" value="Fetch Meter Info" style="edgeLabel;html=1;align=center;verticalAlign=middle;resizable=0;points=[];" vertex="1" connectable="0" parent="sAo4ShZVMDhmdvcyicgG-14">
          <mxGeometry x="0.1586" relative="1" as="geometry">
            <mxPoint as="offset" />
          </mxGeometry>
        </mxCell>
        <mxCell id="sAo4ShZVMDhmdvcyicgG-16" value="" style="endArrow=classic;html=1;rounded=0;entryX=1;entryY=0.5;entryDx=0;entryDy=0;" edge="1" parent="1" target="sAo4ShZVMDhmdvcyicgG-3">
          <mxGeometry width="50" height="50" relative="1" as="geometry">
            <mxPoint x="730" y="460" as="sourcePoint" />
            <mxPoint x="600" y="480" as="targetPoint" />
          </mxGeometry>
        </mxCell>
        <mxCell id="sAo4ShZVMDhmdvcyicgG-17" value="Fetch Reads" style="edgeLabel;html=1;align=center;verticalAlign=middle;resizable=0;points=[];" vertex="1" connectable="0" parent="sAo4ShZVMDhmdvcyicgG-16">
          <mxGeometry x="0.2859" y="-1" relative="1" as="geometry">
            <mxPoint as="offset" />
          </mxGeometry>
        </mxCell>
        <mxCell id="sAo4ShZVMDhmdvcyicgG-18" value="One Row At A Time" style="endArrow=classic;html=1;rounded=0;exitX=1;exitY=0.5;exitDx=0;exitDy=0;entryX=0.19;entryY=0.975;entryDx=0;entryDy=0;entryPerimeter=0;fillColor=#f8cecc;strokeColor=#b85450;" edge="1" parent="1" source="sAo4ShZVMDhmdvcyicgG-9" target="sAo4ShZVMDhmdvcyicgG-6">
          <mxGeometry width="50" height="50" relative="1" as="geometry">
            <mxPoint x="360" y="900" as="sourcePoint" />
            <mxPoint x="410" y="850" as="targetPoint" />
          </mxGeometry>
        </mxCell>
        <mxCell id="sAo4ShZVMDhmdvcyicgG-19" value="" style="endArrow=classic;html=1;rounded=0;exitX=0;exitY=0.5;exitDx=0;exitDy=0;entryX=-0.008;entryY=0.588;entryDx=0;entryDy=0;entryPerimeter=0;" edge="1" parent="1" source="sAo4ShZVMDhmdvcyicgG-4" target="sAo4ShZVMDhmdvcyicgG-5">
          <mxGeometry width="50" height="50" relative="1" as="geometry">
            <mxPoint x="80" y="610" as="sourcePoint" />
            <mxPoint x="130" y="560" as="targetPoint" />
          </mxGeometry>
        </mxCell>
        <mxCell id="sAo4ShZVMDhmdvcyicgG-20" value="" style="endArrow=classic;html=1;rounded=0;exitX=0;exitY=0.5;exitDx=0;exitDy=0;entryX=0;entryY=0.5;entryDx=0;entryDy=0;" edge="1" parent="1" source="sAo4ShZVMDhmdvcyicgG-7" target="sAo4ShZVMDhmdvcyicgG-8">
          <mxGeometry width="50" height="50" relative="1" as="geometry">
            <mxPoint x="170" y="530" as="sourcePoint" />
            <mxPoint x="169.03999999999996" y="627.04" as="targetPoint" />
          </mxGeometry>
        </mxCell>
        <mxCell id="sAo4ShZVMDhmdvcyicgG-21" value="" style="endArrow=classic;html=1;rounded=0;exitX=0;exitY=0.5;exitDx=0;exitDy=0;entryX=-0.008;entryY=0.588;entryDx=0;entryDy=0;entryPerimeter=0;" edge="1" parent="1" source="sAo4ShZVMDhmdvcyicgG-5" target="sAo4ShZVMDhmdvcyicgG-7">
          <mxGeometry width="50" height="50" relative="1" as="geometry">
            <mxPoint x="180" y="540" as="sourcePoint" />
            <mxPoint x="179.03999999999996" y="637.04" as="targetPoint" />
          </mxGeometry>
        </mxCell>
        <mxCell id="sAo4ShZVMDhmdvcyicgG-22" value="" style="endArrow=classic;html=1;rounded=0;exitX=0;exitY=0.5;exitDx=0;exitDy=0;entryX=0;entryY=0.5;entryDx=0;entryDy=0;" edge="1" parent="1" source="sAo4ShZVMDhmdvcyicgG-8" target="sAo4ShZVMDhmdvcyicgG-9">
          <mxGeometry width="50" height="50" relative="1" as="geometry">
            <mxPoint x="190" y="550" as="sourcePoint" />
            <mxPoint x="189.03999999999996" y="647.04" as="targetPoint" />
          </mxGeometry>
        </mxCell>
        <mxCell id="sAo4ShZVMDhmdvcyicgG-24" value="Importer&lt;br&gt;Initial Validation" style="ellipse;whiteSpace=wrap;html=1;" vertex="1" parent="1">
          <mxGeometry x="930" y="100" width="120" height="80" as="geometry" />
        </mxCell>
        <mxCell id="sAo4ShZVMDhmdvcyicgG-25" value="Billing Engine Setup" style="ellipse;whiteSpace=wrap;html=1;" vertex="1" parent="1">
          <mxGeometry x="930" y="260" width="120" height="80" as="geometry" />
        </mxCell>
        <mxCell id="sAo4ShZVMDhmdvcyicgG-26" value="Billing Engine&lt;br&gt;Batch Reads" style="ellipse;whiteSpace=wrap;html=1;" vertex="1" parent="1">
          <mxGeometry x="980" y="380" width="120" height="80" as="geometry" />
        </mxCell>
        <mxCell id="sAo4ShZVMDhmdvcyicgG-27" value="Fetch Previous Read" style="ellipse;whiteSpace=wrap;html=1;fillColor=#647687;strokeColor=#314354;fontColor=#ffffff;" vertex="1" parent="1">
          <mxGeometry x="1010" y="500" width="120" height="80" as="geometry" />
        </mxCell>
        <mxCell id="sAo4ShZVMDhmdvcyicgG-28" value="Calculate Consumption" style="ellipse;whiteSpace=wrap;html=1;" vertex="1" parent="1">
          <mxGeometry x="1010" y="590" width="120" height="80" as="geometry" />
        </mxCell>
        <mxCell id="sAo4ShZVMDhmdvcyicgG-29" value="Read Buffer" style="rounded=1;whiteSpace=wrap;html=1;fixedSize=1;fillColor=#d5e8d4;strokeColor=#82b366;" vertex="1" parent="1">
          <mxGeometry x="1330" y="630" width="100" height="80" as="geometry" />
        </mxCell>
        <mxCell id="sAo4ShZVMDhmdvcyicgG-30" value="Validate Consumption" style="ellipse;whiteSpace=wrap;html=1;" vertex="1" parent="1">
          <mxGeometry x="1010" y="700" width="120" height="80" as="geometry" />
        </mxCell>
        <mxCell id="sAo4ShZVMDhmdvcyicgG-31" value="Calculate Charges" style="ellipse;whiteSpace=wrap;html=1;" vertex="1" parent="1">
          <mxGeometry x="1010" y="820" width="120" height="80" as="geometry" />
        </mxCell>
        <mxCell id="sAo4ShZVMDhmdvcyicgG-32" value="Write Ledger&lt;br&gt;Update Reads&lt;br&gt;Update Snapshots" style="ellipse;whiteSpace=wrap;html=1;" vertex="1" parent="1">
          <mxGeometry x="1010" y="920" width="120" height="80" as="geometry" />
        </mxCell>
        <mxCell id="sAo4ShZVMDhmdvcyicgG-33" value="" style="endArrow=classic;html=1;rounded=0;exitX=1;exitY=1;exitDx=0;exitDy=0;" edge="1" parent="1" source="sAo4ShZVMDhmdvcyicgG-24" target="sAo4ShZVMDhmdvcyicgG-29">
          <mxGeometry width="50" height="50" relative="1" as="geometry">
            <mxPoint x="1210" y="230" as="sourcePoint" />
            <mxPoint x="1260" y="180" as="targetPoint" />
          </mxGeometry>
        </mxCell>
        <mxCell id="sAo4ShZVMDhmdvcyicgG-34" value="Insert Reads" style="edgeLabel;html=1;align=center;verticalAlign=middle;resizable=0;points=[];" vertex="1" connectable="0" parent="sAo4ShZVMDhmdvcyicgG-33">
          <mxGeometry x="-0.0666" y="-1" relative="1" as="geometry">
            <mxPoint x="1" as="offset" />
          </mxGeometry>
        </mxCell>
        <mxCell id="sAo4ShZVMDhmdvcyicgG-35" value="" style="endArrow=classic;html=1;rounded=0;exitX=0;exitY=0.25;exitDx=0;exitDy=0;entryX=1;entryY=0.5;entryDx=0;entryDy=0;" edge="1" parent="1" source="sAo4ShZVMDhmdvcyicgG-48" target="sAo4ShZVMDhmdvcyicgG-25">
          <mxGeometry width="50" height="50" relative="1" as="geometry">
            <mxPoint x="1190" y="170" as="sourcePoint" />
            <mxPoint x="1240" y="120" as="targetPoint" />
            <Array as="points">
              <mxPoint x="1220" y="370" />
            </Array>
          </mxGeometry>
        </mxCell>
        <mxCell id="sAo4ShZVMDhmdvcyicgG-36" value="Fetch&amp;nbsp; Rate Info" style="edgeLabel;html=1;align=center;verticalAlign=middle;resizable=0;points=[];" vertex="1" connectable="0" parent="sAo4ShZVMDhmdvcyicgG-35">
          <mxGeometry x="0.1586" relative="1" as="geometry">
            <mxPoint as="offset" />
          </mxGeometry>
        </mxCell>
        <mxCell id="sAo4ShZVMDhmdvcyicgG-37" value="" style="endArrow=classic;html=1;rounded=0;exitX=0.25;exitY=0;exitDx=0;exitDy=0;entryX=1;entryY=0.5;entryDx=0;entryDy=0;" edge="1" parent="1" source="sAo4ShZVMDhmdvcyicgG-48" target="sAo4ShZVMDhmdvcyicgG-24">
          <mxGeometry width="50" height="50" relative="1" as="geometry">
            <mxPoint x="1605" y="430" as="sourcePoint" />
            <mxPoint x="1054" y="125.03999999999996" as="targetPoint" />
          </mxGeometry>
        </mxCell>
        <mxCell id="sAo4ShZVMDhmdvcyicgG-38" value="Fetch Meter Info" style="edgeLabel;html=1;align=center;verticalAlign=middle;resizable=0;points=[];" vertex="1" connectable="0" parent="sAo4ShZVMDhmdvcyicgG-37">
          <mxGeometry x="0.1586" relative="1" as="geometry">
            <mxPoint as="offset" />
          </mxGeometry>
        </mxCell>
        <mxCell id="sAo4ShZVMDhmdvcyicgG-39" value="" style="endArrow=classic;html=1;rounded=0;entryX=1;entryY=0.5;entryDx=0;entryDy=0;exitX=0;exitY=0.25;exitDx=0;exitDy=0;" edge="1" parent="1" target="sAo4ShZVMDhmdvcyicgG-26" source="sAo4ShZVMDhmdvcyicgG-29">
          <mxGeometry width="50" height="50" relative="1" as="geometry">
            <mxPoint x="1580" y="480" as="sourcePoint" />
            <mxPoint x="1450" y="500" as="targetPoint" />
          </mxGeometry>
        </mxCell>
        <mxCell id="sAo4ShZVMDhmdvcyicgG-40" value="Fetch Reads" style="edgeLabel;html=1;align=center;verticalAlign=middle;resizable=0;points=[];" vertex="1" connectable="0" parent="sAo4ShZVMDhmdvcyicgG-39">
          <mxGeometry x="0.2859" y="-1" relative="1" as="geometry">
            <mxPoint as="offset" />
          </mxGeometry>
        </mxCell>
        <mxCell id="sAo4ShZVMDhmdvcyicgG-41" value="Update Reads" style="endArrow=classic;html=1;rounded=0;exitX=1;exitY=0.5;exitDx=0;exitDy=0;entryX=0.19;entryY=0.975;entryDx=0;entryDy=0;entryPerimeter=0;" edge="1" parent="1" source="sAo4ShZVMDhmdvcyicgG-32" target="sAo4ShZVMDhmdvcyicgG-29">
          <mxGeometry width="50" height="50" relative="1" as="geometry">
            <mxPoint x="1210" y="920" as="sourcePoint" />
            <mxPoint x="1260" y="870" as="targetPoint" />
          </mxGeometry>
        </mxCell>
        <mxCell id="sAo4ShZVMDhmdvcyicgG-43" value="" style="endArrow=classic;html=1;rounded=0;exitX=0;exitY=0.5;exitDx=0;exitDy=0;entryX=0;entryY=0.5;entryDx=0;entryDy=0;" edge="1" parent="1" source="sAo4ShZVMDhmdvcyicgG-30" target="sAo4ShZVMDhmdvcyicgG-31">
          <mxGeometry width="50" height="50" relative="1" as="geometry">
            <mxPoint x="1020" y="550" as="sourcePoint" />
            <mxPoint x="1019.04" y="647.04" as="targetPoint" />
          </mxGeometry>
        </mxCell>
        <mxCell id="sAo4ShZVMDhmdvcyicgG-44" value="" style="endArrow=classic;html=1;rounded=0;exitX=0;exitY=0.5;exitDx=0;exitDy=0;entryX=-0.008;entryY=0.588;entryDx=0;entryDy=0;entryPerimeter=0;" edge="1" parent="1" source="sAo4ShZVMDhmdvcyicgG-28" target="sAo4ShZVMDhmdvcyicgG-30">
          <mxGeometry width="50" height="50" relative="1" as="geometry">
            <mxPoint x="1030" y="560" as="sourcePoint" />
            <mxPoint x="1029.04" y="657.04" as="targetPoint" />
          </mxGeometry>
        </mxCell>
        <mxCell id="sAo4ShZVMDhmdvcyicgG-45" value="" style="endArrow=classic;html=1;rounded=0;exitX=0;exitY=0.5;exitDx=0;exitDy=0;entryX=0;entryY=0.5;entryDx=0;entryDy=0;" edge="1" parent="1" source="sAo4ShZVMDhmdvcyicgG-31" target="sAo4ShZVMDhmdvcyicgG-32">
          <mxGeometry width="50" height="50" relative="1" as="geometry">
            <mxPoint x="1040" y="570" as="sourcePoint" />
            <mxPoint x="1039.04" y="667.04" as="targetPoint" />
          </mxGeometry>
        </mxCell>
        <mxCell id="sAo4ShZVMDhmdvcyicgG-46" value="Ledger Buffer" style="rounded=1;whiteSpace=wrap;html=1;fillColor=#d5e8d4;strokeColor=#82b366;" vertex="1" parent="1">
          <mxGeometry x="1330" y="850" width="120" height="60" as="geometry" />
        </mxCell>
        <mxCell id="sAo4ShZVMDhmdvcyicgG-47" value="Write Charges" style="endArrow=classic;html=1;rounded=0;entryX=0;entryY=0.5;entryDx=0;entryDy=0;exitX=1;exitY=0.5;exitDx=0;exitDy=0;" edge="1" parent="1" source="sAo4ShZVMDhmdvcyicgG-32" target="sAo4ShZVMDhmdvcyicgG-46">
          <mxGeometry width="50" height="50" relative="1" as="geometry">
            <mxPoint x="790" y="580" as="sourcePoint" />
            <mxPoint x="840" y="530" as="targetPoint" />
          </mxGeometry>
        </mxCell>
        <mxCell id="sAo4ShZVMDhmdvcyicgG-48" value="Client DB" style="shape=dataStorage;whiteSpace=wrap;html=1;fixedSize=1;" vertex="1" parent="1">
          <mxGeometry x="1580" y="520" width="100" height="80" as="geometry" />
        </mxCell>
        <mxCell id="sAo4ShZVMDhmdvcyicgG-49" value="Insert Batches of Processed Reads" style="endArrow=classic;html=1;rounded=0;entryX=0;entryY=0.75;entryDx=0;entryDy=0;exitX=1;exitY=0.5;exitDx=0;exitDy=0;" edge="1" parent="1" source="sAo4ShZVMDhmdvcyicgG-29" target="sAo4ShZVMDhmdvcyicgG-48">
          <mxGeometry width="50" height="50" relative="1" as="geometry">
            <mxPoint x="1560" y="780" as="sourcePoint" />
            <mxPoint x="1610" y="730" as="targetPoint" />
          </mxGeometry>
        </mxCell>
        <mxCell id="sAo4ShZVMDhmdvcyicgG-50" value="Insert Batches of Ledger Entries" style="endArrow=classic;html=1;rounded=0;exitX=1;exitY=0;exitDx=0;exitDy=0;entryX=0.25;entryY=1;entryDx=0;entryDy=0;" edge="1" parent="1" source="sAo4ShZVMDhmdvcyicgG-46" target="sAo4ShZVMDhmdvcyicgG-48">
          <mxGeometry width="50" height="50" relative="1" as="geometry">
            <mxPoint x="1500" y="840" as="sourcePoint" />
            <mxPoint x="1550" y="790" as="targetPoint" />
          </mxGeometry>
        </mxCell>
        <mxCell id="sAo4ShZVMDhmdvcyicgG-51" value="Fetch Previous Read" style="endArrow=classic;html=1;rounded=0;exitX=0;exitY=0.5;exitDx=0;exitDy=0;entryX=1;entryY=0.5;entryDx=0;entryDy=0;" edge="1" parent="1" source="sAo4ShZVMDhmdvcyicgG-29" target="sAo4ShZVMDhmdvcyicgG-28">
          <mxGeometry width="50" height="50" relative="1" as="geometry">
            <mxPoint x="740" y="580" as="sourcePoint" />
            <mxPoint x="790" y="530" as="targetPoint" />
          </mxGeometry>
        </mxCell>
        <mxCell id="sAo4ShZVMDhmdvcyicgG-52" value="Importer&lt;br&gt;Initial Validation" style="ellipse;whiteSpace=wrap;html=1;" vertex="1" parent="1">
          <mxGeometry x="1820" y="130" width="120" height="80" as="geometry" />
        </mxCell>
        <mxCell id="sAo4ShZVMDhmdvcyicgG-53" value="Read Process Manager" style="ellipse;whiteSpace=wrap;html=1;" vertex="1" parent="1">
          <mxGeometry x="1820" y="290" width="120" height="80" as="geometry" />
        </mxCell>
        <mxCell id="sAo4ShZVMDhmdvcyicgG-56" value="Calculate Consumption" style="ellipse;whiteSpace=wrap;html=1;fillColor=#fff2cc;strokeColor=#d6b656;" vertex="1" parent="1">
          <mxGeometry x="2000.96" y="315" width="120" height="80" as="geometry" />
        </mxCell>
        <mxCell id="sAo4ShZVMDhmdvcyicgG-57" value="Read Buffer" style="rounded=1;whiteSpace=wrap;html=1;fixedSize=1;fillColor=#d5e8d4;strokeColor=#82b366;" vertex="1" parent="1">
          <mxGeometry x="2250" y="450" width="100" height="80" as="geometry" />
        </mxCell>
        <mxCell id="sAo4ShZVMDhmdvcyicgG-58" value="Validate Consumption" style="ellipse;whiteSpace=wrap;html=1;fillColor=#fff2cc;strokeColor=#d6b656;" vertex="1" parent="1">
          <mxGeometry x="2000.96" y="425" width="120" height="80" as="geometry" />
        </mxCell>
        <mxCell id="sAo4ShZVMDhmdvcyicgG-59" value="Calculate Charges" style="ellipse;whiteSpace=wrap;html=1;fillColor=#fff2cc;strokeColor=#d6b656;" vertex="1" parent="1">
          <mxGeometry x="2000.96" y="545" width="120" height="80" as="geometry" />
        </mxCell>
        <mxCell id="sAo4ShZVMDhmdvcyicgG-60" value="Write Ledger&lt;br&gt;Update Reads&lt;br&gt;Update Snapshots" style="ellipse;whiteSpace=wrap;html=1;fillColor=#fff2cc;strokeColor=#d6b656;" vertex="1" parent="1">
          <mxGeometry x="2000.96" y="645" width="120" height="80" as="geometry" />
        </mxCell>
        <mxCell id="sAo4ShZVMDhmdvcyicgG-61" value="" style="endArrow=classic;html=1;rounded=0;exitX=1;exitY=1;exitDx=0;exitDy=0;entryX=0.5;entryY=0;entryDx=0;entryDy=0;" edge="1" parent="1" source="sAo4ShZVMDhmdvcyicgG-52" target="sAo4ShZVMDhmdvcyicgG-53">
          <mxGeometry width="50" height="50" relative="1" as="geometry">
            <mxPoint x="2100" y="260" as="sourcePoint" />
            <mxPoint x="2150" y="210" as="targetPoint" />
          </mxGeometry>
        </mxCell>
        <mxCell id="sAo4ShZVMDhmdvcyicgG-62" value="Valid Imported Reads" style="edgeLabel;html=1;align=center;verticalAlign=middle;resizable=0;points=[];" vertex="1" connectable="0" parent="sAo4ShZVMDhmdvcyicgG-61">
          <mxGeometry x="-0.0666" y="-1" relative="1" as="geometry">
            <mxPoint x="1" as="offset" />
          </mxGeometry>
        </mxCell>
        <mxCell id="sAo4ShZVMDhmdvcyicgG-65" value="" style="endArrow=classic;html=1;rounded=0;entryX=1;entryY=0.5;entryDx=0;entryDy=0;" edge="1" parent="1" source="sAo4ShZVMDhmdvcyicgG-79" target="sAo4ShZVMDhmdvcyicgG-52">
          <mxGeometry width="50" height="50" relative="1" as="geometry">
            <mxPoint x="2495" y="460" as="sourcePoint" />
            <mxPoint x="1944" y="155.03999999999996" as="targetPoint" />
          </mxGeometry>
        </mxCell>
        <mxCell id="sAo4ShZVMDhmdvcyicgG-66" value="Fetch Meter Info" style="edgeLabel;html=1;align=center;verticalAlign=middle;resizable=0;points=[];" vertex="1" connectable="0" parent="sAo4ShZVMDhmdvcyicgG-65">
          <mxGeometry x="0.1586" relative="1" as="geometry">
            <mxPoint as="offset" />
          </mxGeometry>
        </mxCell>
        <mxCell id="sAo4ShZVMDhmdvcyicgG-69" value="Insert/Update Reads" style="endArrow=classic;html=1;rounded=0;exitX=1;exitY=0.5;exitDx=0;exitDy=0;entryX=0.19;entryY=0.975;entryDx=0;entryDy=0;entryPerimeter=0;" edge="1" parent="1" source="sAo4ShZVMDhmdvcyicgG-60" target="sAo4ShZVMDhmdvcyicgG-57">
          <mxGeometry width="50" height="50" relative="1" as="geometry">
            <mxPoint x="2100" y="950" as="sourcePoint" />
            <mxPoint x="2150" y="900" as="targetPoint" />
          </mxGeometry>
        </mxCell>
        <mxCell id="sAo4ShZVMDhmdvcyicgG-70" value="" style="endArrow=classic;html=1;rounded=0;exitX=0;exitY=0.5;exitDx=0;exitDy=0;entryX=0;entryY=0.5;entryDx=0;entryDy=0;" edge="1" parent="1" source="sAo4ShZVMDhmdvcyicgG-58" target="sAo4ShZVMDhmdvcyicgG-59">
          <mxGeometry width="50" height="50" relative="1" as="geometry">
            <mxPoint x="2010.96" y="275" as="sourcePoint" />
            <mxPoint x="2010" y="372.03999999999996" as="targetPoint" />
          </mxGeometry>
        </mxCell>
        <mxCell id="sAo4ShZVMDhmdvcyicgG-71" value="" style="endArrow=classic;html=1;rounded=0;exitX=0;exitY=0.5;exitDx=0;exitDy=0;entryX=-0.008;entryY=0.588;entryDx=0;entryDy=0;entryPerimeter=0;" edge="1" parent="1" source="sAo4ShZVMDhmdvcyicgG-56" target="sAo4ShZVMDhmdvcyicgG-58">
          <mxGeometry width="50" height="50" relative="1" as="geometry">
            <mxPoint x="2020.96" y="285" as="sourcePoint" />
            <mxPoint x="2020" y="382.03999999999996" as="targetPoint" />
          </mxGeometry>
        </mxCell>
        <mxCell id="sAo4ShZVMDhmdvcyicgG-72" value="" style="endArrow=classic;html=1;rounded=0;exitX=0;exitY=0.5;exitDx=0;exitDy=0;entryX=0;entryY=0.5;entryDx=0;entryDy=0;" edge="1" parent="1" source="sAo4ShZVMDhmdvcyicgG-59" target="sAo4ShZVMDhmdvcyicgG-60">
          <mxGeometry width="50" height="50" relative="1" as="geometry">
            <mxPoint x="2030.96" y="295" as="sourcePoint" />
            <mxPoint x="2030" y="392.03999999999996" as="targetPoint" />
          </mxGeometry>
        </mxCell>
        <mxCell id="sAo4ShZVMDhmdvcyicgG-73" value="Ledger Buffer" style="rounded=1;whiteSpace=wrap;html=1;fillColor=#d5e8d4;strokeColor=#82b366;" vertex="1" parent="1">
          <mxGeometry x="2220" y="880" width="120" height="60" as="geometry" />
        </mxCell>
        <mxCell id="sAo4ShZVMDhmdvcyicgG-74" value="Write Charges" style="endArrow=classic;html=1;rounded=0;entryX=0;entryY=0.5;entryDx=0;entryDy=0;exitX=1;exitY=0.5;exitDx=0;exitDy=0;" edge="1" parent="1" source="sAo4ShZVMDhmdvcyicgG-60" target="sAo4ShZVMDhmdvcyicgG-73">
          <mxGeometry width="50" height="50" relative="1" as="geometry">
            <mxPoint x="1680" y="610" as="sourcePoint" />
            <mxPoint x="1730" y="560" as="targetPoint" />
          </mxGeometry>
        </mxCell>
        <mxCell id="sAo4ShZVMDhmdvcyicgG-75" value="Client DB" style="shape=dataStorage;whiteSpace=wrap;html=1;fixedSize=1;" vertex="1" parent="1">
          <mxGeometry x="2470" y="550" width="100" height="80" as="geometry" />
        </mxCell>
        <mxCell id="sAo4ShZVMDhmdvcyicgG-76" value="Insert Batches of Processed Reads" style="endArrow=classic;html=1;rounded=0;entryX=0;entryY=0.75;entryDx=0;entryDy=0;exitX=1;exitY=0.5;exitDx=0;exitDy=0;" edge="1" parent="1" source="sAo4ShZVMDhmdvcyicgG-57" target="sAo4ShZVMDhmdvcyicgG-75">
          <mxGeometry width="50" height="50" relative="1" as="geometry">
            <mxPoint x="2450" y="810" as="sourcePoint" />
            <mxPoint x="2500" y="760" as="targetPoint" />
          </mxGeometry>
        </mxCell>
        <mxCell id="sAo4ShZVMDhmdvcyicgG-77" value="Insert Batches of Ledger Entries" style="endArrow=classic;html=1;rounded=0;exitX=1;exitY=0;exitDx=0;exitDy=0;entryX=0.25;entryY=1;entryDx=0;entryDy=0;" edge="1" parent="1" source="sAo4ShZVMDhmdvcyicgG-73" target="sAo4ShZVMDhmdvcyicgG-75">
          <mxGeometry width="50" height="50" relative="1" as="geometry">
            <mxPoint x="2390" y="870" as="sourcePoint" />
            <mxPoint x="2440" y="820" as="targetPoint" />
          </mxGeometry>
        </mxCell>
        <mxCell id="sAo4ShZVMDhmdvcyicgG-78" value="Fetch Previous Read" style="endArrow=classic;html=1;rounded=0;exitX=0;exitY=0.5;exitDx=0;exitDy=0;entryX=1;entryY=0.5;entryDx=0;entryDy=0;" edge="1" parent="1" source="sAo4ShZVMDhmdvcyicgG-57" target="sAo4ShZVMDhmdvcyicgG-56">
          <mxGeometry width="50" height="50" relative="1" as="geometry">
            <mxPoint x="1630" y="610" as="sourcePoint" />
            <mxPoint x="1680" y="560" as="targetPoint" />
          </mxGeometry>
        </mxCell>
        <mxCell id="sAo4ShZVMDhmdvcyicgG-79" value="Meter Buffer" style="rounded=1;whiteSpace=wrap;html=1;fillColor=#d5e8d4;strokeColor=#82b366;" vertex="1" parent="1">
          <mxGeometry x="2250" y="160" width="120" height="60" as="geometry" />
        </mxCell>
        <mxCell id="sAo4ShZVMDhmdvcyicgG-81" value="" style="endArrow=classic;html=1;rounded=0;exitX=0.5;exitY=0;exitDx=0;exitDy=0;entryX=1;entryY=1;entryDx=0;entryDy=0;" edge="1" parent="1" source="sAo4ShZVMDhmdvcyicgG-75" target="sAo4ShZVMDhmdvcyicgG-79">
          <mxGeometry width="50" height="50" relative="1" as="geometry">
            <mxPoint x="2450" y="450" as="sourcePoint" />
            <mxPoint x="2500" y="400" as="targetPoint" />
          </mxGeometry>
        </mxCell>
        <mxCell id="sAo4ShZVMDhmdvcyicgG-84" value="1 - n Read Processor" style="swimlane;horizontal=0;" vertex="1" parent="1">
          <mxGeometry x="1960" y="310" width="240" height="450" as="geometry" />
        </mxCell>
        <mxCell id="sAo4ShZVMDhmdvcyicgG-85" value="Read" style="endArrow=classic;html=1;rounded=0;entryX=0;entryY=0.5;entryDx=0;entryDy=0;exitX=0.5;exitY=1;exitDx=0;exitDy=0;" edge="1" parent="1" source="sAo4ShZVMDhmdvcyicgG-53" target="sAo4ShZVMDhmdvcyicgG-84">
          <mxGeometry width="50" height="50" relative="1" as="geometry">
            <mxPoint x="1860" y="570" as="sourcePoint" />
            <mxPoint x="1910" y="520" as="targetPoint" />
            <Array as="points">
              <mxPoint x="1880" y="535" />
            </Array>
          </mxGeometry>
        </mxCell>
        <mxCell id="sAo4ShZVMDhmdvcyicgG-86" value="Other Buffers&lt;br&gt;Snapshots&lt;br&gt;Billing Cycle" style="rounded=1;whiteSpace=wrap;html=1;fillColor=#d5e8d4;strokeColor=#82b366;" vertex="1" parent="1">
          <mxGeometry x="2020" y="830" width="120" height="60" as="geometry" />
        </mxCell>
        <mxCell id="sAo4ShZVMDhmdvcyicgG-89" value="Other Chatty DB Access" style="endArrow=classic;startArrow=classic;html=1;rounded=0;fillColor=#f8cecc;strokeColor=#b85450;" edge="1" parent="1">
          <mxGeometry width="50" height="50" relative="1" as="geometry">
            <mxPoint x="320" y="640" as="sourcePoint" />
            <mxPoint x="660" y="480" as="targetPoint" />
          </mxGeometry>
        </mxCell>
        <mxCell id="sAo4ShZVMDhmdvcyicgG-90" value="Check for Auto Pay" style="ellipse;whiteSpace=wrap;html=1;" vertex="1" parent="1">
          <mxGeometry x="160" y="1000" width="120" height="80" as="geometry" />
        </mxCell>
      </root>
    </mxGraphModel>
  </diagram>
</mxfile>
